<svg width="272" height="75" viewBox="0 0 272 75" fill="none" xmlns="http://www.w3.org/2000/svg">
<g clip-path="url(#clip0_445_86)">
<path d="M9.90684 34.3078C11.4848 32.9933 13.8518 32.3361 17.0077 32.3361C19.0663 32.3151 21.1123 32.6567 23.0509 33.3453C24.9012 34.0273 26.668 34.9149 28.3179 35.9911C28.9566 36.4884 29.7306 36.7838 30.5399 36.8392C31.2769 36.8535 31.9897 36.5777 32.523 36.0717C32.7883 35.8273 32.9984 35.5297 33.1396 35.1986C33.2807 34.8675 33.3497 34.5104 33.3419 34.1509C33.3598 33.5573 33.2122 32.9702 32.9154 32.4548C32.6311 31.9771 31.9714 31.4485 30.9365 30.869C29.0496 29.552 26.9595 28.5495 24.7483 27.9009C22.2704 27.1746 19.6976 26.8187 17.1143 26.8451C12.3463 26.8451 8.56058 28.0465 5.75719 30.4493C4.40249 31.5657 3.31993 32.9729 2.59086 34.565C1.8618 36.1572 1.50519 37.893 1.54785 39.6419C1.54785 42.4687 2.15913 44.7301 3.38171 46.4262C4.61571 48.1334 6.26102 49.5053 8.1668 50.4162C10.1717 51.3901 12.2561 52.193 14.3977 52.8161C16.5898 53.4578 18.6681 54.0995 20.6328 54.7411C22.3934 55.2715 24.0342 56.1354 25.4648 57.2852C26.7215 58.3424 27.3498 59.8322 27.3498 61.7544C27.3498 64.2504 26.4798 66.1712 24.7398 67.5167C22.9997 68.8623 20.4551 69.5365 17.1058 69.5393C14.9207 69.5379 12.7483 69.2091 10.6617 68.5641C8.60835 67.9439 6.66765 67.0021 4.91277 65.774C4.59438 65.493 4.23117 65.2666 3.83804 65.1041C3.48268 64.9753 3.10742 64.9093 2.72919 64.909C2.37218 64.9069 2.01858 64.9782 1.69054 65.1183C1.36251 65.2584 1.0671 65.4643 0.822831 65.7232C0.556544 65.9787 0.346037 66.286 0.204426 66.6259C0.0628148 66.9659 -0.00686536 67.3312 -0.000273398 67.6991C-0.0195955 68.2929 0.128102 68.8802 0.426206 69.3951C0.90004 70.0455 1.50959 70.5865 2.21315 70.9809C4.38118 72.3715 6.76634 73.3946 9.27138 74.0084C11.7943 74.6668 14.3908 75.0059 16.9992 75.0176C21.8952 75.0176 25.8429 73.8007 28.8425 71.3668C31.8421 68.933 33.339 65.6977 33.3333 61.6611C33.3333 58.8343 32.705 56.5927 31.4483 54.9362C30.1788 53.2568 28.5215 51.9057 26.6163 50.9971C24.6263 50.025 22.5577 49.2208 20.4323 48.5929C18.2715 47.9512 16.1931 47.2954 14.1972 46.6255C12.4287 46.0682 10.7912 45.1626 9.38227 43.9626C8.15685 42.8772 7.54556 41.4044 7.54841 39.5444C7.51068 38.5501 7.70381 37.5605 8.1128 36.6524C8.5218 35.7443 9.13568 34.942 9.90684 34.3078V34.3078Z" fill="#F6F6F6"/>
<path d="M79.7811 55.5472C79.1785 55.1142 78.4471 54.8948 77.7042 54.9239C76.9776 54.9089 76.2656 55.1275 75.6741 55.5472C75.1055 55.9656 74.8212 56.6539 74.8212 57.6122C74.8212 61.3266 73.9839 64.2254 72.3092 66.3088C70.6346 68.3921 68.0245 69.4323 64.4791 69.4295C60.8057 69.4295 58.1643 68.3893 56.5551 66.3088C54.9458 64.2282 54.1398 61.3294 54.137 57.6122V34.3464H73.6612C74.6904 34.3464 75.4154 34.075 75.8362 33.5323C76.2444 32.9557 76.4635 32.2678 76.4635 31.5627C76.4635 30.8576 76.2444 30.1698 75.8362 29.5932C75.4126 29.0448 74.6876 28.772 73.6612 28.7748H54.1199V16.2918C54.1199 15.2657 53.8299 14.5491 53.2669 14.1293C52.6423 13.6985 51.8943 13.4799 51.1345 13.506C50.3898 13.4935 49.6596 13.7113 49.0448 14.1293C48.4307 14.5533 48.1236 15.2657 48.1236 16.2918V28.7833H37.5C36.5319 28.7833 35.841 29.0547 35.4188 29.6017C35.0106 30.1782 34.7915 30.8661 34.7915 31.5712C34.7915 32.2763 35.0106 32.9642 35.4188 33.5408C35.8239 34.0835 36.5319 34.3464 37.5 34.3464H48.1279V57.5995C48.1279 63.0438 49.5495 67.3038 52.3927 70.3793C55.2358 73.4548 59.2632 74.9926 64.4748 74.9926C67.4403 75.0593 70.3667 74.311 72.9319 72.8301C75.3448 71.3942 77.3041 69.314 78.587 66.8261C79.9375 64.265 80.6142 61.222 80.617 57.697C80.6042 56.6793 80.327 55.9712 79.7811 55.5472Z" fill="#F6F6F6"/>
<path d="M103.698 26.862C100.429 26.8084 97.1994 27.5847 94.3157 29.1177C91.5602 30.6167 89.2977 32.8735 87.7991 35.6179C86.2211 38.4447 85.4321 41.8368 85.4321 45.7943V56.4583C85.4321 62.2249 87.1565 66.7577 90.6053 70.0565C94.0541 73.3554 98.6445 75.0048 104.376 75.0048C106.773 75.0027 109.159 74.6963 111.477 74.0932C113.723 73.527 115.885 72.6717 117.909 71.5491C119.387 70.6558 120.128 69.6311 120.131 68.4749C120.138 67.7896 119.897 67.1244 119.452 66.6008C119.261 66.3476 119.013 66.142 118.728 66C118.443 65.8581 118.129 65.7836 117.81 65.7824C117.482 65.784 117.156 65.834 116.842 65.9308C116.4 66.085 115.978 66.2945 115.589 66.5541C113.853 67.433 112.041 68.1566 110.176 68.7166C108.322 69.2144 106.408 69.4528 104.487 69.4247C100.365 69.4247 97.1745 68.294 94.917 66.0326C92.6595 63.7712 91.5322 60.584 91.5351 56.471V52.7058H118.791C119.883 52.7058 120.672 52.4047 121.158 51.7941C121.682 51.052 121.938 50.1552 121.883 49.25V45.6925C121.883 39.6715 120.177 35.0271 116.766 31.7594C113.354 28.4916 108.998 26.8591 103.698 26.862ZM91.5223 45.595C91.5223 41.3718 92.6339 38.1055 94.8573 35.796C97.0807 33.4865 100.028 32.3332 103.698 32.336C107.369 32.336 110.317 33.4894 112.543 35.796C114.77 38.1026 115.881 41.369 115.879 45.595V47.2317H91.5223V45.595Z" fill="#F6F6F6"/>
<path d="M162.702 27.9868C162.058 27.5624 161.299 27.3449 160.527 27.3635C159.786 27.3537 159.061 27.5714 158.45 27.9868C157.836 28.4108 157.533 29.1571 157.533 30.2468V33.3337C156.148 31.3218 154.286 29.6807 152.11 28.5558C149.935 27.4308 147.514 26.8567 145.063 26.8844C142.005 26.8449 138.985 27.5541 136.269 28.9493C133.586 30.366 131.384 32.5388 129.94 35.1951C128.359 37.9795 127.57 41.5511 127.573 45.91V56.0864C127.573 62.4919 129.137 67.2479 132.264 70.3545C135.392 73.4612 139.372 75.0159 144.205 75.0187C147.001 75.0278 149.757 74.3521 152.228 73.0513C154.613 71.8113 156.637 69.9816 158.104 67.7384L158.318 71.8471C158.382 72.8096 158.672 73.4965 159.171 73.9163C159.691 74.3323 160.341 74.553 161.009 74.5396C161.7 74.5669 162.375 74.325 162.89 73.8654C163.376 73.4414 163.615 72.7121 163.615 71.7453V30.2256C163.619 29.1359 163.316 28.3854 162.702 27.9868ZM157.533 56.9599C157.533 60.7364 156.47 63.7625 154.343 66.0381C152.216 68.3136 149.285 69.4443 145.549 69.4302C141.489 69.4302 138.476 68.1652 136.512 65.6352C134.547 63.1053 133.563 59.9195 133.561 56.0779V45.9015C133.561 41.9921 134.544 38.7893 136.512 36.2933C138.479 33.7973 141.492 32.5478 145.549 32.545C149.285 32.545 152.216 33.6757 154.343 35.9371C156.47 38.1985 157.533 41.202 157.533 44.9475V56.9599Z" fill="#F6F6F6"/>
<path d="M214.263 26.8633C211.107 26.8633 208.385 27.57 206.096 28.9834C203.93 30.3423 202.175 32.2607 201.021 34.5337C200.459 33.2855 199.693 32.139 198.752 31.1416C196.011 28.2922 192.515 26.8675 188.265 26.8675C185.586 26.8095 182.944 27.4905 180.631 28.835C178.827 29.9157 177.316 31.4178 176.229 33.2108L176.089 30.0392C176.025 29.0767 175.73 28.3897 175.236 27.97C174.716 27.5533 174.065 27.3325 173.398 27.3467C172.706 27.3175 172.027 27.5458 171.496 27.9869C171.015 28.4053 170.773 29.1261 170.771 30.1494V71.7582C170.734 72.1534 170.792 72.5518 170.94 72.9204C171.088 73.289 171.323 73.6173 171.624 73.8782C172.237 74.3373 172.989 74.5751 173.756 74.5524C174.528 74.5689 175.286 74.3515 175.931 73.9291C176.542 73.5079 176.848 72.7871 176.848 71.7666V44.8289C176.848 36.6312 180.23 32.5324 186.994 32.5324C190.539 32.5324 193.053 33.6207 194.534 35.7973C196.015 37.9739 196.756 40.9845 196.756 44.8289V71.7369C196.722 72.1385 196.788 72.5422 196.949 72.9121C197.109 73.282 197.36 73.6066 197.677 73.857C198.308 74.3108 199.07 74.5475 199.848 74.5312C200.615 74.5539 201.367 74.3161 201.98 73.857C202.281 73.5961 202.515 73.2678 202.664 72.8992C202.812 72.5306 202.87 72.1322 202.833 71.7369V44.8289C202.833 36.6312 206.245 32.5324 213.069 32.5324C216.549 32.5324 219.045 33.6207 220.558 35.7973C222.07 37.9739 222.828 40.9845 222.831 44.8289V71.7369C222.794 72.1322 222.852 72.5306 223 72.8992C223.149 73.2678 223.383 73.5961 223.684 73.857C224.297 74.3164 225.049 74.5542 225.816 74.5312C226.596 74.5469 227.359 74.3103 227.991 73.857C228.309 73.6066 228.559 73.282 228.72 72.9121C228.881 72.5422 228.947 72.1385 228.912 71.7369V44.6381C228.912 38.4898 227.526 33.9896 224.754 31.1374C221.982 28.2852 218.485 26.8605 214.263 26.8633Z" fill="#F6F6F6"/>
<path d="M254.561 6.08984C248.689 6.08984 244.266 9.7279 243.669 14.7186H246.902C247.499 11.5893 250.561 9.38869 254.578 9.38869C259.086 9.38869 262.49 12.2678 262.49 16.0712V17.004L251.239 18.0174C242.479 18.7807 236.44 22.9233 236.44 31.2976C236.44 38.9935 242.411 44.493 251.239 44.493C255.751 44.493 259.662 43.2209 262.473 40.9397V43.5644H265.791V16.0712C265.791 10.3215 261.193 6.08984 254.561 6.08984ZM262.473 28.5924C262.473 32.6502 258.728 35.6989 252.86 35.6989C248.518 35.6989 246.134 33.6679 246.134 31.128C246.134 28.5076 247.84 26.6462 252.105 26.3069L262.485 25.3783L262.473 28.5924ZM262.473 22.4993L251.836 23.4321C245.968 23.9409 242.735 26.5613 242.735 31.2128C242.735 35.5293 246.394 38.7433 252.348 38.7433C256.941 38.7433 260.6 37.1363 262.473 34.5032V37.6324C260.089 40.0027 256.348 41.4486 251.836 41.4486C244.522 41.4486 239.839 37.1363 239.839 31.2128C239.839 24.8526 244.347 21.4859 251.58 20.8923L262.473 19.9637V22.4993Z" fill="#F6F6F6"/>
<path d="M254.561 0C245.029 0 238.052 6.25849 237.459 14.7176H240.777C241.387 8.11992 246.987 3.21405 254.561 3.21405C262.899 3.21405 268.682 8.62874 268.682 16.0702V43.5635H272V16.0702C272 6.78427 264.938 0 254.561 0Z" fill="#F6F6F6"/>
</g>
<defs>
<clipPath id="clip0_445_86">
<rect width="272" height="75" fill="white"/>
</clipPath>
</defs>
</svg>
